<svg width="66" height="66" viewBox="0 0 66 66" fill="none" xmlns="http://www.w3.org/2000/svg">
<g clip-path="url(#clip0_24376_103847)">
<rect width="65.9999" height="65.9999" rx="8" fill="#F0F2F5"/>
<path d="M62.8076 66.1005C65.012 65.6642 66.3156 63.3478 65.1554 61.4233C62.7809 57.4848 59.1046 54.0234 54.428 51.3728C48.2807 47.8886 40.7486 46 33 46C25.2514 46 17.7193 47.8886 11.572 51.3728C6.89544 54.0234 3.21908 57.4847 0.844642 61.4233C-0.315581 63.3478 0.987953 65.6642 3.19236 66.1004L4.52403 66.364C23.3257 70.0852 42.6743 70.0853 61.476 66.364L62.8076 66.1005Z" fill="#BDBDBD"/>
<ellipse cx="33" cy="25.5" rx="17" ry="18.5" fill="#BDBDBD"/>
</g>
<defs>
<clipPath id="clip0_24376_103847">
<rect width="65.9999" height="65.9999" rx="8" fill="white"/>
</clipPath>
</defs>
</svg>
