<svg width="66" height="66" viewBox="0 0 66 66" fill="none" xmlns="http://www.w3.org/2000/svg">
<rect width="65.9999" height="65.9999" rx="8" fill="#F0F2F5"/>
<path fill-rule="evenodd" clip-rule="evenodd" d="M60.4928 23.529C60.4928 23.2528 60.2689 23.029 59.9928 23.029H48.2391C47.963 23.029 47.7391 22.8051 47.7391 22.529V9.5C47.7391 9.22386 47.5153 9 47.2391 9H19.2536C18.9775 9 18.7536 9.22386 18.7536 9.5V22.529C18.7536 22.8051 18.5298 23.029 18.2536 23.029H6.5C6.22386 23.029 6 23.2528 6 23.529V56.5C6 56.7761 6.22386 57 6.5 57H13.1884H15.5072H18.7536H21.0725H25.942H40.6667H45.5362H47.8551H51.1014H53.3043H59.9928C60.2689 57 60.4928 56.7761 60.4928 56.5V23.529ZM45.4203 11.8188C45.4203 11.5427 45.1964 11.3188 44.9203 11.3188H21.5725C21.2963 11.3188 21.0725 11.5427 21.0725 11.8188V23.029V54.1812C21.0725 54.4573 21.2963 54.6812 21.5725 54.6812H25.442C25.7182 54.6812 25.942 54.4573 25.942 54.1812V45.9058C25.942 45.6297 26.1659 45.4058 26.442 45.4058H40.0507C40.3269 45.4058 40.5507 45.6297 40.5507 45.9058V54.1812C40.5507 54.4573 40.7746 54.6812 41.0507 54.6812H44.9203C45.1964 54.6812 45.4203 54.4573 45.4203 54.1812V23.029V11.8188ZM28.1449 54.1812C28.1449 54.4573 28.3688 54.6812 28.6449 54.6812H37.7319C38.008 54.6812 38.2319 54.4573 38.2319 54.1812V48.2246C38.2319 47.9485 38.008 47.7246 37.7319 47.7246H28.6449C28.3688 47.7246 28.1449 47.9485 28.1449 48.2246V54.1812ZM8.81884 25.3478C8.5427 25.3478 8.31884 25.5717 8.31884 25.8478V54.1812C8.31884 54.4573 8.5427 54.6812 8.81884 54.6812H13.1884H18.2536C18.5298 54.6812 18.7536 54.4573 18.7536 54.1812V25.8478C18.7536 25.5717 18.5298 25.3478 18.2536 25.3478H8.81884ZM53.3043 54.6812H57.6739C57.9501 54.6812 58.1739 54.4573 58.1739 54.1812V25.8478C58.1739 25.5717 57.9501 25.3478 57.6739 25.3478H48.2391C47.963 25.3478 47.7391 25.5717 47.7391 25.8478V54.1812C47.7391 54.4573 47.963 54.6812 48.2391 54.6812H53.3043Z" fill="#BDBDBD" fill-opacity="0.858824"/>
<path d="M14.6955 29.8691H12.3767V33.4633H14.6955V29.8691Z" fill="#BDBDBD" fill-opacity="0.858824"/>
<path d="M14.6955 38.2168H12.3767V41.811H14.6955V38.2168Z" fill="#BDBDBD" fill-opacity="0.858824"/>
<path d="M14.6955 46.5645H12.3767V50.1587H14.6955V46.5645Z" fill="#BDBDBD" fill-opacity="0.858824"/>
<path d="M54.116 29.8691H51.7971V33.4633H54.116V29.8691Z" fill="#BDBDBD" fill-opacity="0.858824"/>
<path d="M54.116 38.2168H51.7971V41.811H54.116V38.2168Z" fill="#BDBDBD" fill-opacity="0.858824"/>
<path d="M54.116 46.5645H51.7971V50.1587H54.116V46.5645Z" fill="#BDBDBD" fill-opacity="0.858824"/>
<path d="M28.2607 29.8691H25.9419V33.4633H28.2607V29.8691Z" fill="#BDBDBD" fill-opacity="0.858824"/>
<path d="M28.2607 38.2168H25.9419V41.811H28.2607V38.2168Z" fill="#BDBDBD" fill-opacity="0.858824"/>
<path d="M34.4058 29.8691H32.0869V33.4633H34.4058V29.8691Z" fill="#BDBDBD" fill-opacity="0.858824"/>
<path d="M34.4058 38.2168H32.0869V41.811H34.4058V38.2168Z" fill="#BDBDBD" fill-opacity="0.858824"/>
<path d="M40.5508 29.8691H38.2319V33.4633H40.5508V29.8691Z" fill="#BDBDBD" fill-opacity="0.858824"/>
<path d="M40.5508 38.2168H38.2319V41.811H40.5508V38.2168Z" fill="#BDBDBD" fill-opacity="0.858824"/>
</svg>
