<svg width="400" height="300" viewBox="0 0 400 300" xmlns="http://www.w3.org/2000/svg">
  <rect width="100%" height="100%" fill="#f0f0f0"/>
  <rect x="20" y="20" width="360" height="30" fill="#e0e0e0"/>
  <rect x="20" y="70" width="360" height="15" fill="#e8e8e8"/>
  <rect x="20" y="95" width="360" height="15" fill="#e8e8e8"/>
  <rect x="20" y="120" width="250" height="15" fill="#e8e8e8"/>
  <rect x="20" y="150" width="360" height="15" fill="#e8e8e8"/>
  <rect x="20" y="175" width="360" height="15" fill="#e8e8e8"/>
  <rect x="20" y="200" width="300" height="15" fill="#e8e8e8"/>
  <rect x="20" y="230" width="360" height="15" fill="#e8e8e8"/>
  <rect x="20" y="255" width="360" height="15" fill="#e8e8e8"/>
  <rect x="20" y="280" width="200" height="15" fill="#e8e8e8"/>
  <line x1="10" y1="10" x2="390" y2="10" stroke="#cccccc" stroke-width="1"/>
  <line x1="10" y1="290" x2="390" y2="290" stroke="#cccccc" stroke-width="1"/>
  <line x1="10" y1="10" x2="10" y2="290" stroke="#cccccc" stroke-width="1"/>
  <line x1="390" y1="10" x2="390" y2="290" stroke="#cccccc" stroke-width="1"/>
</svg>